<?xml version="1.0" encoding="UTF-8" standalone="no"?>
<!-- Created with Inkscape (http://www.inkscape.org/) -->

<svg
   xmlns:dc="http://purl.org/dc/elements/1.1/"
   xmlns:cc="http://creativecommons.org/ns#"
   xmlns:rdf="http://www.w3.org/1999/02/22-rdf-syntax-ns#"
   xmlns:svg="http://www.w3.org/2000/svg"
   xmlns="http://www.w3.org/2000/svg"
   xmlns:xlink="http://www.w3.org/1999/xlink"
   xmlns:sodipodi="http://sodipodi.sourceforge.net/DTD/sodipodi-0.dtd"
   xmlns:inkscape="http://www.inkscape.org/namespaces/inkscape"
   width="32"
   height="32"
   id="svg2198"
   sodipodi:version="0.32"
   inkscape:version="0.47pre4 r22446"
   version="1.0"
   sodipodi:docname="Proteomatic icon.svg"
   inkscape:output_extension="org.inkscape.output.svg.inkscape"
   inkscape:export-filename="/home/michael/Desktop/gpf.png"
   inkscape:export-xdpi="360"
   inkscape:export-ydpi="360">
  <defs
     id="defs2200">
    <marker
       inkscape:stockid="Arrow2Mend"
       orient="auto"
       refY="0.0"
       refX="0.0"
       id="Arrow2Mend"
       style="overflow:visible;">
      <path
         id="path3782"
         style="font-size:12.0;fill-rule:evenodd;stroke-width:0.62500000;stroke-linejoin:round;"
         d="M 8.7185878,4.0337352 L -2.2072895,0.016013256 L 8.7185884,-4.0017078 C 6.9730900,-1.6296469 6.9831476,1.6157441 8.7185878,4.0337352 z "
         transform="scale(0.6) rotate(180) translate(0,0)" />
    </marker>
    <marker
       inkscape:stockid="Arrow2Send"
       orient="auto"
       refY="0.0"
       refX="0.0"
       id="Arrow2Send"
       style="overflow:visible;">
      <path
         id="path3788"
         style="font-size:12.0;fill-rule:evenodd;stroke-width:0.62500000;stroke-linejoin:round;"
         d="M 8.7185878,4.0337352 L -2.2072895,0.016013256 L 8.7185884,-4.0017078 C 6.9730900,-1.6296469 6.9831476,1.6157441 8.7185878,4.0337352 z "
         transform="scale(0.3) rotate(180) translate(-2.3,0)" />
    </marker>
    <marker
       inkscape:stockid="Arrow1Mend"
       orient="auto"
       refY="0.0"
       refX="0.0"
       id="Arrow1Mend"
       style="overflow:visible;">
      <path
         id="path3764"
         d="M 0.0,0.0 L 5.0,-5.0 L -12.5,0.0 L 5.0,5.0 L 0.0,0.0 z "
         style="fill-rule:evenodd;stroke:#000000;stroke-width:1.0pt;marker-start:none;"
         transform="scale(0.4) rotate(180) translate(10,0)" />
    </marker>
    <inkscape:path-effect
       effect="bend_path"
       id="path-effect3748"
       is_visible="true"
       bendpath="m 11.094157,20.700848 c 2.303719,-1.74479 5.579141,-2.400812 9.166666,-1.804462"
       prop_scale="0.9"
       scale_y_rel="false"
       vertical="false"
       bendpath-nodetypes="cc" />
    <inkscape:path-effect
       effect="bend_path"
       id="path-effect3743"
       is_visible="true"
       bendpath="m 8,18 c 8,-7 17,0 16,-5"
       prop_scale="1"
       scale_y_rel="false"
       vertical="false"
       bendpath-nodetypes="cc" />
    <inkscape:path-effect
       effect="bend_path"
       id="path-effect3730"
       is_visible="true"
       bendpath="M 0,4.151492 C 7.4242546,-1 15.721173,4.859199 14.424255,0"
       prop_scale="1.55"
       scale_y_rel="false"
       vertical="false" />
    <inkscape:path-effect
       effect="bend_path"
       id="path-effect3693"
       is_visible="true"
       bendpath="M 0,4.151492 C 7.4242546,-1 15.721173,4.859199 14.424255,0"
       prop_scale="1"
       scale_y_rel="false"
       vertical="false" />
    <inkscape:path-effect
       bendpath-nodetypes="cc"
       vertical="false"
       scale_y_rel="false"
       prop_scale="1.55"
       bendpath="M 8.4677024,17.396822 C 15.891957,12.24533 24.188875,18.104529 22.891957,13.24533"
       is_visible="false"
       id="path-effect3690"
       effect="bend_path" />
    <inkscape:path-effect
       bendpath-nodetypes="cc"
       vertical="false"
       scale_y_rel="false"
       prop_scale="1.55"
       bendpath="m 8,14 c 4,-2 9.843083,-0.901312 14,-3.5"
       is_visible="true"
       id="path-effect3674"
       effect="bend_path" />
    <inkscape:path-effect
       effect="bend_path"
       id="path-effect3670"
       is_visible="true"
       bendpath="M 8.4677024,17.396822 C 15.891957,12.24533 24.188875,18.104529 22.891957,13.24533"
       prop_scale="1.55"
       scale_y_rel="false"
       vertical="false"
       bendpath-nodetypes="cc" />
    <inkscape:perspective
       sodipodi:type="inkscape:persp3d"
       inkscape:vp_x="0 : 16 : 1"
       inkscape:vp_y="0 : 1000 : 0"
       inkscape:vp_z="32 : 16 : 1"
       inkscape:persp3d-origin="16 : 10.666667 : 1"
       id="perspective15" />
    <filter
       inkscape:collect="always"
       id="filter7060">
      <feGaussianBlur
         inkscape:collect="always"
         stdDeviation="0.6"
         id="feGaussianBlur7062" />
    </filter>
    <linearGradient
       y2="24.928204"
       x2="46.266659"
       y1="24.928204"
       x1="4.2491012"
       gradientUnits="userSpaceOnUse"
       id="linearGradient3208"
       xlink:href="#linearGradient2187"
       inkscape:collect="always" />
    <linearGradient
       gradientUnits="userSpaceOnUse"
       y2="24.928204"
       x2="46.266659"
       y1="24.928204"
       x1="4.2491012"
       id="linearGradient3204"
       xlink:href="#linearGradient2187"
       inkscape:collect="always" />
    <linearGradient
       y2="5"
       x2="5"
       y1="39"
       x1="40"
       gradientUnits="userSpaceOnUse"
       id="linearGradient3203"
       xlink:href="#linearGradient2187"
       inkscape:collect="always" />
    <linearGradient
       gradientUnits="userSpaceOnUse"
       y2="23.995403"
       x2="44.996902"
       y1="23.995403"
       x1="3.0030956"
       id="linearGradient3199"
       xlink:href="#linearGradient2187"
       inkscape:collect="always" />
    <linearGradient
       y2="23.894728"
       x2="45"
       y1="23.894728"
       x1="3.0757556"
       gradientUnits="userSpaceOnUse"
       id="linearGradient3238"
       xlink:href="#linearGradient2187"
       inkscape:collect="always" />
    <linearGradient
       gradientUnits="userSpaceOnUse"
       y2="23.894728"
       x2="45"
       y1="23.894728"
       x1="3.0757556"
       id="linearGradient3232"
       xlink:href="#linearGradient2187"
       inkscape:collect="always" />
    <linearGradient
       gradientUnits="userSpaceOnUse"
       y2="23.057343"
       x2="44.3125"
       y1="23.057343"
       x1="4.2536035"
       id="linearGradient3225"
       xlink:href="#linearGradient2187"
       inkscape:collect="always" />
    <linearGradient
       gradientUnits="userSpaceOnUse"
       y2="23.06616"
       x2="44.28125"
       y1="23.06616"
       x1="4.2573376"
       id="linearGradient3213"
       xlink:href="#linearGradient2187"
       inkscape:collect="always" />
    <linearGradient
       y2="12.583769"
       x2="12.624337"
       y1="11.39502"
       x1="17.060806"
       gradientTransform="matrix(0,-1.171926,-1.171926,0,45.133916,47.273377)"
       gradientUnits="userSpaceOnUse"
       id="linearGradient3197"
       xlink:href="#linearGradient2187"
       inkscape:collect="always" />
    <radialGradient
       gradientUnits="userSpaceOnUse"
       gradientTransform="matrix(-1.2490301,1.8547459,-1.7095916,-1.1512798,82.727315,12.064141)"
       r="10.16466"
       fy="13.282721"
       fx="15.09403"
       cy="13.282721"
       cx="15.09403"
       id="radialGradient2332"
       xlink:href="#linearGradient2326"
       inkscape:collect="always" />
    <linearGradient
       y2="12.583769"
       x2="12.624337"
       y1="11.39502"
       x1="17.060806"
       gradientTransform="matrix(0,-1.171926,-1.171926,0,40.234601,56.509137)"
       gradientUnits="userSpaceOnUse"
       id="linearGradient1764"
       xlink:href="#linearGradient2187"
       inkscape:collect="always" />
    <linearGradient
       inkscape:collect="always"
       id="linearGradient2187">
      <stop
         style="stop-color:#ffffff;stop-opacity:1;"
         offset="0"
         id="stop2189" />
      <stop
         style="stop-color:#ffffff;stop-opacity:0;"
         offset="1"
         id="stop2191" />
    </linearGradient>
    <radialGradient
       gradientUnits="userSpaceOnUse"
       gradientTransform="matrix(1,0,0,0.536723,0,16.87306)"
       r="15.644737"
       fy="36.421127"
       fx="24.837126"
       cy="36.421127"
       cx="24.837126"
       id="radialGradient8668"
       xlink:href="#linearGradient8662"
       inkscape:collect="always" />
    <linearGradient
       id="linearGradient8662"
       inkscape:collect="always">
      <stop
         id="stop8664"
         offset="0"
         style="stop-color:#000000;stop-opacity:1;" />
      <stop
         id="stop8666"
         offset="1"
         style="stop-color:#000000;stop-opacity:0;" />
    </linearGradient>
    <linearGradient
       id="linearGradient2308">
      <stop
         id="stop2310"
         offset="0"
         style="stop-color:#edd400;stop-opacity:1;" />
      <stop
         id="stop2312"
         offset="1"
         style="stop-color:#edd400;stop-opacity:0;" />
    </linearGradient>
    <linearGradient
       id="linearGradient2316">
      <stop
         id="stop2318"
         offset="0"
         style="stop-color:#c4a000;stop-opacity:1;" />
      <stop
         id="stop2320"
         offset="1"
         style="stop-color:#c4a000;stop-opacity:0;" />
    </linearGradient>
    <linearGradient
       id="linearGradient2326"
       inkscape:collect="always">
      <stop
         id="stop2328"
         offset="0"
         style="stop-color:#ffffff;stop-opacity:1;" />
      <stop
         id="stop2330"
         offset="1"
         style="stop-color:#ffffff;stop-opacity:0;" />
    </linearGradient>
    <inkscape:perspective
       id="perspective31"
       inkscape:persp3d-origin="24 : 16 : 1"
       inkscape:vp_z="48 : 24 : 1"
       inkscape:vp_y="0 : 1000 : 0"
       inkscape:vp_x="0 : 24 : 1"
       sodipodi:type="inkscape:persp3d" />
    <inkscape:perspective
       id="perspective3221"
       inkscape:persp3d-origin="16 : 10.666667 : 1"
       inkscape:vp_z="32 : 16 : 1"
       inkscape:vp_y="0 : 1000 : 0"
       inkscape:vp_x="0 : 16 : 1"
       sodipodi:type="inkscape:persp3d" />
  </defs>
  <sodipodi:namedview
     id="base"
     pagecolor="#ffffff"
     bordercolor="#666666"
     borderopacity="1.0"
     inkscape:pageopacity="0.0"
     inkscape:pageshadow="2"
     inkscape:zoom="13.4375"
     inkscape:cx="16"
     inkscape:cy="16"
     inkscape:document-units="px"
     inkscape:current-layer="layer5"
     width="32px"
     height="32px"
     showgrid="false"
     inkscape:window-width="1366"
     inkscape:window-height="694"
     inkscape:window-x="0"
     inkscape:window-y="25"
     inkscape:grid-points="true"
     gridtolerance="10000"
     inkscape:window-maximized="1">
    <inkscape:grid
       id="GridFromPre046Settings"
       type="xygrid"
       originx="0px"
       originy="0px"
       spacingx="1px"
       spacingy="1px"
       color="#0000ff"
       empcolor="#0000ff"
       opacity="0.2"
       empopacity="0.4"
       empspacing="4" />
  </sodipodi:namedview>
  <metadata
     id="metadata2203">
    <rdf:RDF>
      <cc:Work
         rdf:about="">
        <dc:format>image/svg+xml</dc:format>
        <dc:type
           rdf:resource="http://purl.org/dc/dcmitype/StillImage" />
        <dc:title></dc:title>
      </cc:Work>
    </rdf:RDF>
  </metadata>
  <g
     inkscape:label="Ebene 1"
     inkscape:groupmode="layer"
     id="layer1"
     style="display:inline">
    <rect
       ry="3"
       rx="3"
       y="6"
       x="6"
       height="22"
       width="22"
       id="rect3176"
       style="opacity:0.6;fill:#000000;fill-opacity:1;stroke:#000000;stroke-width:2;stroke-linecap:round;stroke-miterlimit:4;stroke-dasharray:none;stroke-opacity:1;filter:url(#filter7060)" />
    <rect
       ry="3"
       rx="3"
       y="5"
       x="5"
       height="22"
       width="22"
       id="rect3161"
       style="fill:#b3df88;fill-opacity:1;stroke:none;stroke-width:2;stroke-linecap:round;stroke-miterlimit:4;stroke-dasharray:none;stroke-opacity:1"
       inkscape:export-filename="/home/michael/Desktop/rect3161.png"
       inkscape:export-xdpi="135"
       inkscape:export-ydpi="135" />
    <rect
       ry="3"
       rx="3"
       y="-10"
       x="2"
       height="6"
       width="6"
       id="rect3186"
       style="fill:#4e9a06;fill-opacity:1;stroke:none;stroke-width:1;stroke-miterlimit:4;stroke-dasharray:none;stroke-dashoffset:0;stroke-opacity:1" />
    <rect
       style="fill:#73d216;fill-opacity:1;stroke:none;stroke-width:1;stroke-miterlimit:4;stroke-dasharray:none;stroke-dashoffset:0;stroke-opacity:1"
       id="rect3188"
       width="6"
       height="6"
       x="9"
       y="-10"
       rx="3"
       ry="3" />
    <rect
       ry="3"
       rx="3"
       y="-10"
       x="16"
       height="6"
       width="6"
       id="rect3190"
       style="fill:#8ae234;fill-opacity:1;stroke:none;stroke-width:1;stroke-miterlimit:4;stroke-dasharray:none;stroke-dashoffset:0;stroke-opacity:1" />
    <rect
       y="-7"
       x="16"
       height="5"
       width="6"
       id="rect3192"
       style="opacity:0.50000000000000000;fill:#dcdcdc;fill-opacity:1;stroke:none;stroke-width:1;stroke-miterlimit:4;stroke-dasharray:none;stroke-dashoffset:0;stroke-opacity:1" />
    <rect
       style="opacity:0.25;fill:#808080;fill-opacity:1;stroke:none;stroke-width:1;stroke-miterlimit:4;stroke-dasharray:none;stroke-dashoffset:0;stroke-opacity:1"
       id="rect3194"
       width="6"
       height="5"
       x="9"
       y="-7" />
    <rect
       y="-7"
       x="2"
       height="5"
       width="6"
       id="rect3196"
       style="opacity:0.25;fill:#404040;fill-opacity:1;stroke:none;stroke-width:1;stroke-miterlimit:4;stroke-dasharray:none;stroke-dashoffset:0;stroke-opacity:1" />
    <rect
       style="fill:none;fill-opacity:1;stroke:#4b8415;stroke-width:2;stroke-linecap:round;stroke-miterlimit:4;stroke-dasharray:none;stroke-opacity:1"
       id="rect2266"
       width="22"
       height="22"
       x="5"
       y="5"
       rx="3"
       ry="3" />
  </g>
  <g
     inkscape:groupmode="layer"
     id="layer3"
     inkscape:label="arrow"
     style="display:none">
    <g
       inkscape:label="Layer 1"
       id="g2478"
       transform="translate(42.16371,-11.265518)"
       style="fill:#77be31;fill-opacity:1;stroke:#4b8415;stroke-opacity:1;display:inline">
      <path
         inkscape:transform-center-x="-0.93435317"
         sodipodi:nodetypes="ccssccsscccc"
         id="path2415"
         d="M -17.265947,32.656298 L -20.132967,31.001024 C -22.188821,34.561865 -26.747298,35.783305 -30.30814,33.727452 C -33.86898,31.671599 -35.090422,27.113122 -33.034568,23.55228 C -30.978715,19.991438 -26.420238,18.769998 -22.859396,20.825852 L -24.928492,24.40963 C -26.511088,23.495918 -28.537078,24.038781 -29.45079,25.621376 C -30.364503,27.203973 -29.821639,29.22996 -28.239044,30.143675 C -26.656448,31.057386 -24.630458,30.514525 -23.716746,28.931928 L -26.583767,27.276651 L -19.235034,25.307564 L -17.265947,32.656298 z"
         style="opacity:1;fill:#77be31;fill-opacity:1;stroke:#4b8415;stroke-width:1;stroke-linecap:butt;stroke-linejoin:miter;stroke-miterlimit:4;stroke-dasharray:none;stroke-opacity:1" />
    </g>
  </g>
  <g
     inkscape:groupmode="layer"
     id="layer4"
     inkscape:label="question"
     style="display:none">
    <path
       style="opacity:1;fill:#77be31;fill-opacity:1;stroke:#4b8415;stroke-width:1;stroke-linecap:butt;stroke-linejoin:miter;stroke-miterlimit:4;stroke-dasharray:none;stroke-dashoffset:0;stroke-opacity:1"
       d="M -18,4 C -21.312,4 -24,6.688 -24,10 C -24,12.817335 -22.057114,15.168653 -19.4375,15.8125 L -19.4375,24.0625 L -16.53125,24.0625 L -16.53125,15.8125 C -13.926675,15.15811 -12,12.806659 -12,10 C -12,6.688 -14.688,4 -18,4 z"
       id="path2439" />
    <path
       sodipodi:type="arc"
       style="opacity:1;fill:#ffffff;fill-opacity:0.50196078;stroke:none;stroke-width:1;stroke-linecap:butt;stroke-linejoin:miter;stroke-miterlimit:4;stroke-dasharray:none;stroke-dashoffset:0;stroke-opacity:1"
       id="path3220"
       sodipodi:cx="-18"
       sodipodi:cy="10"
       sodipodi:rx="4"
       sodipodi:ry="4"
       d="M -14,10 A 4,4 0 1 1 -22,10 A 4,4 0 1 1 -14,10 z"
       transform="matrix(1.125,0,0,1.125,2.228752,-1.271248)" />
    <path
       id="path3224"
       d="M 12.133072,9.176725 C 9.3945989,10.757783 8.4552477,14.263489 10.036306,17.001962 C 11.381224,19.331429 14.110123,20.348098 16.583462,19.62992 L 20.521786,26.451297 L 22.924771,25.063933 L 18.986447,18.242556 C 20.82761,16.458132 21.298131,13.594131 19.958309,11.273491 C 18.377251,8.5350181 14.871545,7.595667 12.133072,9.176725 z"
       style="fill:#77be31;fill-opacity:1;stroke:#4b8415;stroke-width:1;stroke-linecap:butt;stroke-linejoin:miter;stroke-miterlimit:4;stroke-dasharray:none;stroke-dashoffset:0;stroke-opacity:1" />
    <path
       transform="matrix(0.8438945,-0.4872227,0.4872227,0.8438945,25.292786,-3.0733313)"
       d="M -14,10 A 4,4 0 1 1 -22,10 A 4,4 0 1 1 -14,10 z"
       sodipodi:ry="4"
       sodipodi:rx="4"
       sodipodi:cy="10"
       sodipodi:cx="-18"
       id="path3226"
       style="fill:#ffffff;fill-opacity:0.50196078;stroke:#4b8415;stroke-width:0.93102211;stroke-linecap:butt;stroke-linejoin:miter;stroke-miterlimit:4;stroke-dasharray:none;stroke-dashoffset:0;stroke-opacity:1"
       sodipodi:type="arc" />
  </g>
  <g
     inkscape:groupmode="layer"
     id="layer2"
     inkscape:label="dot"
     style="display:none">
    <g
       id="g3227"
       inkscape:label="Ebene 1"
       transform="translate(10.999997,27.000002)">
      <g
         id="g3164">
        <path
           inkscape:export-ydpi="46.450001"
           inkscape:export-xdpi="46.450001"
           inkscape:export-filename="C:\Users\Micha\Desktop\gpf-16.png"
           transform="matrix(0.2947368,0,0,0.2692308,-24.210519,-20.42308)"
           d="m 116.07142,35 a 16.964285,18.571428 0 1 1 -33.928565,0 16.964285,18.571428 0 1 1 33.928565,0 z"
           sodipodi:ry="18.571428"
           sodipodi:rx="16.964285"
           sodipodi:cy="35"
           sodipodi:cx="99.10714"
           id="path3238"
           style="fill:#77be31;fill-opacity:1;stroke:#4b8415;stroke-width:3.54993534;stroke-linecap:round;stroke-miterlimit:4;stroke-opacity:1;stroke-dasharray:none"
           sodipodi:type="arc" />
      </g>
    </g>
  </g>
  <g
     inkscape:groupmode="layer"
     id="layer5"
     inkscape:label="dna"
     style="display:inline">
    <g
       id="g3739"
       inkscape:path-effect="#path-effect3743"
       transform="matrix(1.1548555,0,0,1.1548555,-2.4032154,-1.9631904)">
      <path
         sodipodi:nodetypes="ccccc"
         id="path3640"
         d="m 7.7033904,17.661018 0.5932192,0.677964 c 1.6093869,-1.496331 3.6049134,-2.607761 5.7699674,-3.125269 10e-7,0 10e-7,0 10e-7,0 1.711664,-0.411683 3.513064,-0.461641 5.301084,-0.371988 1.217582,0.0628 2.480703,0.311404 3.676201,0.04856 0.345945,-0.07671 0.691964,-0.248876 0.84209,-0.550067 0.20573,-0.393293 0.125528,-0.874317 0.02713,-1.322838 0,0 -0.09425,0.01914 -0.09425,0.01914 0.07192,0.448276 0.131342,0.908756 -0.07054,1.227722 -0.120264,0.239333 -0.430805,0.361528 -0.742297,0.425364 -1.148533,0.206098 -2.358523,-0.09942 -3.609162,-0.212549 -1.800709,-0.171582 -3.642631,-0.200156 -5.452845,0.1473 0,0 0,0 0,0 -2.293266,0.444803 -4.453937,1.516467 -6.2406006,3.036663 z"
         style="opacity:0.40366971;fill:#4b8415;fill-opacity:1;stroke:none"
         inkscape:original-d="m 6.2016118,10.539062 0,0.900858 18.6033662,-0.539062 c 0,0 -2.9e-4,-0.09617 -2.9e-4,-0.09617 L 6.2016118,10.539062 z" />
      <path
         id="path3676"
         d="m 10.033947,16.032224 0.386162,0.678937 c 0.551109,-0.325565 1.126122,-0.611117 1.719601,-0.851814 l -0.258924,-0.669612 c -0.634764,0.234223 -1.252335,0.516487 -1.846839,0.842489 z m 6.79954,-1.669567 0.01024,0.468731 c 0.83705,-0.04483 1.682155,-0.03553 2.524384,0.0048 0.466127,0.02293 0.938891,0.07305 1.411682,0.111343 l 0.03186,-0.281607 c -0.465565,-0.06081 -0.937824,-0.132916 -1.415774,-0.176881 -0.847526,-0.08189 -1.704162,-0.132128 -2.562392,-0.126351 z"
         style="fill:#4b8415;fill-opacity:1;stroke:none"
         inkscape:original-d="m 9,10.5625 0,0.78125 2,-0.03125 0,-0.71875 -2,-0.03125 z m 7,0.125 0,0.46875 4,-0.125 0,-0.28125 -4,-0.0625 z" />
    </g>
    <path
       style="fill:#4b8415;fill-opacity:1;stroke:none"
       d="m 10.858834,20.390141 c 2.676183,-2.006037 6.233672,-2.427477 9.465902,-1.878243 l -0.127826,0.768976 c -3.082579,-0.500469 -6.440577,-0.128217 -8.86743,1.730681 z"
       id="rect3745"
       inkscape:path-effect="#path-effect3748"
       inkscape:original-d="m 11.094157,20.267777 8.517059,0 0,0.866142 -8.517059,0 0,-0.866142 z" />
    <g
       id="g4776"
       transform="matrix(1.1548555,0,0,1.1548555,-2.4032154,-1.9631904)">
      <path
         style="font-size:medium;font-style:normal;font-variant:normal;font-weight:normal;font-stretch:normal;text-indent:0;text-align:start;text-decoration:none;line-height:normal;letter-spacing:normal;word-spacing:normal;text-transform:none;direction:ltr;block-progression:tb;writing-mode:lr-tb;text-anchor:start;color:#000000;fill:#4b8415;fill-opacity:1;fill-rule:nonzero;stroke:none;stroke-width:0.2;marker:none;visibility:visible;display:inline;overflow:visible;enable-background:accumulate;font-family:Andale Mono;-inkscape-font-specification:Andale Mono"
         d="M 11.5,16.40625 11.34375,16.5 11.875,17.53125 c -0.128241,0.04774 -0.265165,0.0541 -0.40625,0.03125 l 1,0.96875 L 12.4375,18.25 12.3125,17.125 c -0.06687,0.130209 -0.165352,0.235593 -0.28125,0.3125 L 11.5,16.40625 z"
         id="path3750" />
    </g>
    <g
       id="g4768"
       style="fill:#4b8415;fill-opacity:1"
       transform="matrix(1.1548555,0,0,1.1548555,-2.4032154,-1.9631904)">
      <path
         style="font-size:medium;font-style:normal;font-variant:normal;font-weight:normal;font-stretch:normal;text-indent:0;text-align:start;text-decoration:none;line-height:normal;letter-spacing:normal;word-spacing:normal;text-transform:none;direction:ltr;block-progression:tb;writing-mode:lr-tb;text-anchor:start;color:#000000;fill:#4b8415;fill-opacity:1;stroke:none;stroke-width:0.2;marker:none;visibility:visible;display:inline;overflow:visible;enable-background:accumulate;font-family:Andale Mono;-inkscape-font-specification:Andale Mono"
         d="m 18.46875,15.21875 -0.0625,1 C 18.281893,16.19317 18.165289,16.14616 18.0625,16.0625 l 0.3125,1.03125 0,0.03125 0.09375,0.28125 0.125,-0.25 0,-0.03125 0.4375,-1 c -0.122292,0.07904 -0.26817,0.115886 -0.40625,0.125 l 0.0625,-1.03125 -0.21875,0 z"
         id="path4762" />
    </g>
    <path
       style="fill:#b3df88;fill-opacity:1;stroke:none"
       d="m 24.465116,14.64186 0.520931,0.725582 0.8,-0.502326 -0.27907,-2.046511 L 24.8,13.116279 24.465116,14.64186 z"
       id="path4788" />
    <path
       sodipodi:type="spiral"
       style="fill:none;stroke:#89ba59;stroke-width:0.20999999;stroke-linecap:butt;stroke-linejoin:miter;stroke-miterlimit:4;stroke-opacity:1;stroke-dasharray:none"
       id="path4786"
       sodipodi:cx="10.577002"
       sodipodi:cy="8.4780111"
       sodipodi:expansion="1.5"
       sodipodi:revolution="4"
       sodipodi:radius="4.0641689"
       sodipodi:argument="-18.771791"
       sodipodi:t0="0.2"
       d="m 10.715851,8.1420636 c 0.261315,0.026726 0.407415,0.3028348 0.366301,0.5447288 -0.06179,0.3635324 -0.450278,0.5602363 -0.792773,0.4871261 C 9.8130479,9.0722392 9.5603359,8.5574833 9.6709895,8.1035513 9.8169728,7.5046874 10.470374,7.1911218 11.045617,7.3441883 11.776051,7.5385497 12.154921,8.3418871 11.955059,9.0475698 11.708526,9.9180377 10.744794,10.366362 9.9001407,10.115688 8.8816546,9.8134244 8.3599737,8.6795063 8.6651829,7.6878459 9.0265368,6.513765 10.339883,5.9150277 11.486171,6.2782604 c 1.3369,0.4236337 2.01622,1.9251862 1.591672,3.2333625 C 12.588888,11.018261 10.890752,11.781537 9.4137368,11.292551 7.7307145,10.735363 6.8802407,8.8326133 7.4366451,7.1800843 8.0648614,5.3142729 10.179946,4.3734768 12.01442,5.0001533 c 1.59474,0.5447811 2.644841,2.1205119 2.614468,3.7935873"
       transform="matrix(0.55051137,0.83482765,-0.83482765,0.55051137,23.936746,-2.0837633)" />
    <rect
       style="fill:#4b8415;fill-opacity:1;stroke:none"
       id="rect4790"
       width="1.3534883"
       height="5.1199126"
       x="26"
       y="9.4604654" />
  </g>
</svg>
