<?xml version="1.0" encoding="UTF-8" standalone="no"?>
<!-- Created with Inkscape (http://www.inkscape.org/) -->
<svg
   xmlns:dc="http://purl.org/dc/elements/1.1/"
   xmlns:cc="http://web.resource.org/cc/"
   xmlns:rdf="http://www.w3.org/1999/02/22-rdf-syntax-ns#"
   xmlns:svg="http://www.w3.org/2000/svg"
   xmlns="http://www.w3.org/2000/svg"
   xmlns:sodipodi="http://sodipodi.sourceforge.net/DTD/sodipodi-0.dtd"
   xmlns:inkscape="http://www.inkscape.org/namespaces/inkscape"
   width="200"
   height="200"
   id="svg2"
   sodipodi:version="0.32"
   inkscape:version="0.45.1"
   sodipodi:docbase="/home/michael/Proteomatic/proteomatic/src/icons/craft"
   sodipodi:docname="ticket.svg"
   inkscape:output_extension="org.inkscape.output.svg.inkscape"
   version="1.0">
  <defs
     id="defs4" />
  <sodipodi:namedview
     id="base"
     pagecolor="#ffffff"
     bordercolor="#666666"
     borderopacity="1.0"
     gridtolerance="10000"
     guidetolerance="50"
     objecttolerance="10"
     inkscape:pageopacity="0.0"
     inkscape:pageshadow="2"
     inkscape:zoom="0.98994949"
     inkscape:cx="224.46761"
     inkscape:cy="172.51689"
     inkscape:document-units="px"
     inkscape:current-layer="layer1"
     showguides="true"
     inkscape:guide-bbox="true"
     inkscape:window-width="910"
     inkscape:window-height="627"
     inkscape:window-x="275"
     inkscape:window-y="172"
     showgrid="false"
     inkscape:guide-points="false"
     width="200px"
     height="200px" />
  <metadata
     id="metadata7">
    <rdf:RDF>
      <cc:Work
         rdf:about="">
        <dc:format>image/svg+xml</dc:format>
        <dc:type
           rdf:resource="http://purl.org/dc/dcmitype/StillImage" />
      </cc:Work>
    </rdf:RDF>
  </metadata>
  <g
     inkscape:label="Layer 1"
     inkscape:groupmode="layer"
     id="layer1"
     transform="translate(-40,-932.36218)">
    <g
       id="g12900"
       transform="matrix(1.0706267,-0.4800544,0.4800544,1.0706267,-255.99405,1052.5614)">
      <path
         id="rect8033"
         d="M 250,82.375 C 244.46,82.375 240,86.835 240,92.375 L 240,107.375 C 248.28,107.375 255,114.095 255,122.375 C 255,130.655 248.28,137.375 240,137.375 L 240,152.375 C 240,157.915 244.46,162.375 250,162.375 L 380,162.375 C 385.54,162.375 390,157.915 390,152.375 L 390,137.375 C 381.72,137.375 375,130.655 375,122.375 C 375,114.095 381.72,107.375 390,107.375 L 390,92.375 C 390,86.835 385.54,82.375 380,82.375 L 250,82.375 z "
         style="fill:#9a0f0f;fill-opacity:1;stroke:none;stroke-width:3;stroke-miterlimit:4;stroke-dasharray:none;stroke-opacity:1" />
      <rect
         y="97.362183"
         x="265"
         height="50"
         width="100"
         id="rect9979"
         style="fill:none;fill-opacity:1;stroke:#ffffff;stroke-width:5;stroke-miterlimit:4;stroke-dasharray:none;stroke-opacity:0.863388" />
    </g>
  </g>
</svg>
